IKResults
version=1
nRows=4
nColumns=63
inDegrees=yes

Units are S.I. units (second, meters, Newtons, ...)
If the header above contains a line with 'inDegrees', this indicates whether rotational values are in degrees (yes) or radians (no).

endheader
time	pelvis_tilt	pelvis_list	pelvis_rotation	pelvis_tx	pelvis_ty	pelvis_tz	hip_flexion_r	hip_adduction_r	hip_rotation_r	knee_angle_r	knee_angle_r_beta	ankle_angle_r	subtalar_angle_r	mtp_angle_r	hip_flexion_l	hip_adduction_l	hip_rotation_l	knee_angle_l	knee_angle_l_beta	ankle_angle_l	subtalar_angle_l	mtp_angle_l	L5_S1_Flex_Ext	L5_S1_Lat_Bending	L5_S1_axial_rotation	L4_L5_Flex_Ext	L4_L5_Lat_Bending	L4_L5_axial_rotation	L3_L4_Flex_Ext	L3_L4_Lat_Bending	L3_L4_axial_rotation	L2_L3_Flex_Ext	L2_L3_Lat_Bending	L2_L3_axial_rotation	L1_L2_Flex_Ext	L1_L2_Lat_Bending	L1_L2_axial_rotation	L1_T12_Flex_Ext	L1_T12_Lat_Bending	L1_T12_axial_rotation	Abs_r3	Abs_r2	Abs_r1	Abs_t1	Abs_t2	neck_flexion	neck_bending	neck_rotation	arm_flex_r	arm_add_r	arm_rot_r	elbow_flex_r	pro_sup_r	wrist_flex_r	wrist_dev_r	arm_flex_l	arm_add_l	arm_rot_l	elbow_flex_l	pro_sup_l	wrist_flex_l	wrist_dev_l
      0.03333333	    -28.93978450	      2.53517840	      1.67159050	     -2.08018634	      0.90916455	     -0.30414853	     20.82388546	     -6.89930265	     -5.30035701	      1.26598940	      0.02209568	      9.61441672	    -13.98243792	      0.00000000	     29.17518969	     -5.29721386	    -16.39179362	     17.87333833	      0.31194860	     13.29641025	    -16.06998329	      0.00000000	      5.19814403	     -0.40775273	     -0.94477463	      9.65347327	     -0.54231113	     -1.00382304	      8.54003082	     -0.99140998	     -1.00382304	      5.94095881	     -0.99140998	     -0.82667780	      4.82699654	     -0.83148936	     -0.76762938	      2.97021950	     -0.63160898	     -0.70858097	     37.12982297	     -4.61258042	     -5.25455305	      0.00000000	      0.00000000	      4.47972076	      3.22791584	     -6.77666941	    -12.62747564	     -9.69843693	     32.80722371	     22.74244533	     89.99559364	      0.00000000	      0.00000000	    -29.43034721	     -9.33559362	     -9.96692305	     48.10345668	     89.99559364	      0.00000000	      0.00000000
      0.06666667	    -28.94620139	      2.53761646	      1.67125820	     -2.08013248	      0.90916846	     -0.30412728	     20.82390656	     -6.90001823	     -5.30026080	      1.27494338	      0.02225196	      9.61458747	    -13.97930939	      0.00000000	     29.17719732	     -5.29700177	    -16.39126765	     17.87351101	      0.31195162	     13.29683873	    -16.06472077	      0.00000000	      5.19756501	     -0.40766534	     -0.94486057	      9.65239798	     -0.54219490	     -1.00391435	      8.53907955	     -0.99119751	     -1.00391435	      5.94029705	     -0.99119751	     -0.82675299	      4.82645887	     -0.83131116	     -0.76769921	      2.96988865	     -0.63147361	     -0.70864542	     37.12568709	     -4.61159188	     -5.25503101	      0.00000000	      0.00000000	      4.47923158	      3.22796393	     -6.77653858	    -12.62776007	     -9.69820526	     32.80735621	     22.74318815	     89.99559364	      0.00000000	      0.00000000	    -29.42994106	     -9.33563845	     -9.96685593	     48.10369607	     89.99559364	      0.00000000	      0.00000000
      0.10000000	    -28.95886880	      2.54340098	      1.66975382	     -2.08001710	      0.90916327	     -0.30407733	     20.82172695	     -6.90101016	     -5.30009858	      1.28411648	      0.02241206	      9.61475867	    -13.97627998	      0.00000000	     29.18050125	     -5.29640793	    -16.39084133	     17.87343327	      0.31195026	     13.29806544	    -16.05981261	      0.00000000	      5.19668364	     -0.40750304	     -0.94503426	      9.65076118	     -0.54197904	     -1.00409891	      8.53763155	     -0.99080289	     -1.00409891	      5.93928973	     -0.99080289	     -0.82690498	      4.82564042	     -0.83098020	     -0.76784034	      2.96938503	     -0.63122221	     -0.70877570	     37.11939155	     -4.60975589	     -5.25599707	      0.00000000	      0.00000000	      4.47867456	      3.22806885	     -6.77637499	    -12.62850805	     -9.69776619	     32.80757317	     22.74370331	     89.99559364	      0.00000000	      0.00000000	    -29.42942925	     -9.33638946	     -9.96708861	     48.10379675	     89.99559364	      0.00000000	      0.00000000
      0.13333333	    -28.98123113	      2.55782428	      1.66289167	     -2.07992122	      0.90915334	     -0.30397259	     20.82799752	     -6.90583705	     -5.29603951	      1.29848311	      0.02266281	      9.61749267	    -13.97019849	      0.00000000	     29.19968899	     -5.29273668	    -16.39266927	     17.87043351	      0.31189790	     13.31142429	    -16.05787192	      0.00000000	      5.19280953	     -0.40738838	     -0.94643595	      9.64356658	     -0.54182655	     -1.00558820	      8.53126678	     -0.99052411	     -1.00558820	      5.93486201	     -0.99052411	     -0.82813146	      4.82204293	     -0.83074638	     -0.76897921	      2.96717137	     -0.63104460	     -0.70982696	     37.09171919	     -4.60845883	     -5.26379282	      0.00000000	      0.00000000	      4.47724713	      3.22874228	     -6.77421722	    -12.64374787	     -9.69131164	     32.81077440	     22.73945877	     89.99559364	      0.00000000	      0.00000000	    -29.43562008	     -9.33997856	     -9.96789509	     48.09850319	     89.99559364	      0.00000000	      0.00000000
